<?xml version="1.0" encoding="utf-8"?>
<!-- Generator: Adobe Illustrator 21.0.0, SVG Export Plug-In . SVG Version: 6.00 Build 0)  -->
<svg version="1.1" id="Calque_1" xmlns="http://www.w3.org/2000/svg" xmlns:xlink="http://www.w3.org/1999/xlink" x="0px" y="0px"
	 viewBox="0 0 276.4 361" style="enable-background:new 0 0 276.4 361;" xml:space="preserve">
<style type="text/css">
	.st0{fill:#06A0A9;}
	.st1{fill:#F6F6F6;}
</style>
<title>logo_alone</title>
<g>
	<path class="st0" d="M139.4,161.5l18.9-18.9c32.6-32.6,32.6-85.5,0-118.1s-85.5-32.6-118.1,0C7.6,57,7.6,109.9,40.2,142.5
		l18.9,18.9l-30.1,30.1C-9,230.9-8,293.8,31.4,331.9c38.5,37.2,99.6,37.2,138.1,0l70.2-70.2L139.4,161.5z M80.3,64.5
		c10.4-10.6,27.3-10.7,37.9-0.4s10.7,27.3,0.4,37.9c-0.1,0.1-0.2,0.2-0.4,0.4l-18.9,18.9l-18.9-18.9C69.9,91.9,69.9,75,80.3,64.5z
		 M129.3,291.5c-16.6,16.6-43.6,15.7-60.2-0.3l0,0c-8-6-12.5-18.4-12.5-29.8c0-11.2,4.5-22,12.5-29.9l30.1-30l60.2,60L129.3,291.5z"
		/>
	
		<image style="overflow:visible;opacity:0.4;enable-background:new    ;" width="40" height="39" xlink:href="3C667F0B0DA0F6A.png"  transform="matrix(3.0713 0 0 3.0692 38.12 100.85)">
	</image>
	
		<rect x="70.9" y="133.1" transform="matrix(0.7071 -0.7071 0.7071 0.7071 -85.0992 117.4965)" class="st0" width="56.7" height="56.7"/>
	
		<rect x="70.9" y="111.1" transform="matrix(0.7071 -0.7071 0.7071 0.7071 -85.1027 117.495)" class="st0" width="56.7" height="100.8"/>
	<path class="st0" d="M163.9,266.2c-7.3-7.4-7.3-19.3,0-26.7l13.4-13.4c7.4-7.3,19.3-7.3,26.7,0l66.9,66.9c7.3,7.4,7.3,19.3,0,26.7
		l-13.4,13.4c-7.4,7.3-19.3,7.3-26.7,0L163.9,266.2z"/>
	
		<image style="overflow:visible;opacity:0.4;enable-background:new    ;" width="39" height="39" xlink:href="3C667F0B0DA0F6E.png"  transform="matrix(3.0692 0 0 3.0692 138.96 201.69)">
	</image>
	
		<rect x="171.2" y="233.4" transform="matrix(0.7071 -0.7071 0.7071 0.7071 -126.6302 217.7658)" class="st0" width="56.7" height="56.7"/>
	<path class="st0" d="M186.2,315.2c-7.4,7.3-19.3,7.3-26.8,0l-13.4-13.4c-7.3-7.4-7.3-19.3,0-26.7l62.4-62.4
		c7.4-7.3,19.3-7.3,26.7,0l13.4,13.4c7.3,7.4,7.3,19.3,0,26.7L186.2,315.2z"/>
	<path class="st1" d="M106,208.2L106,208.2L93.7,196c-6.8-6.8-17.7-6.8-24.5,0s-6.8,17.7,0,24.5l0,0l5.6,5.6l-5.6,5.6
		c-8,7.8-12.5,18.6-12.5,29.8c0,11.4,4.4,23.8,12.5,29.8l0,0c16.6,16,43.6,16.9,60.2,0.3l30.1-29.9L106,208.2z M81.4,219.4l-5.6-5.6
		c-3.2-3-3.3-8-0.3-11.1c3-3.2,8-3.3,11.1-0.3c0.1,0.1,0.2,0.2,0.3,0.3l5.6,5.6L81.4,219.4z"/>
</g>
</svg>
